<svg xmlns="http://www.w3.org/2000/svg" viewBox="0 0 96 96"><defs><style>.cls-1,.cls-3,.cls-6,.cls-7,.cls-8{fill:#fff;}.cls-2,.cls-4,.cls-9{fill:none;}.cls-2,.cls-3,.cls-4,.cls-6,.cls-7,.cls-8,.cls-9{stroke:#6e6e6e;}.cls-2,.cls-3,.cls-4,.cls-9{stroke-linecap:round;stroke-linejoin:round;}.cls-2{stroke-width:1.06px;}.cls-5{fill:#6e6e6e;}.cls-6,.cls-7,.cls-8{stroke-miterlimit:10;}.cls-7{stroke-width:1.12px;}.cls-8{stroke-width:1.1px;}.cls-9{stroke-width:0.87px;}</style></defs><g id="taustavalko"><rect class="cls-1" width="96" height="96"/></g><g id="Layer_1" data-name="Layer 1"><path class="cls-2" d="M65.17,40.52c0,17.4-6.81,17.12-15.07,17.12S35,57.92,35,40.52c0-14,0-27.91,15.07-27.91S65.17,26.52,65.17,40.52Z"/><path class="cls-3" d="M33.21,63.3c0-9.62,7.61-12.36,17-12.36s17,2.74,17,12.36"/><path class="cls-3" d="M67.19,63.3c0-9.62-7.6-12.36-17-12.36s-17,2.74-17,12.36"/><path class="cls-3" d="M46.19,46.92v4.33a4,4,0,0,0,8,0V46.92Z"/><path class="cls-4" d="M46.19,46.92v4.33a4,4,0,0,0,8,0V46.92Z"/><path class="cls-3" d="M61.72,37.79c1.64.24,2.17-1.06,2.64-2.65.58-1.93-.14-3-1.78-3.28"/><path class="cls-4" d="M61.72,37.79c1.64.24,2.17-1.06,2.64-2.65.58-1.93-.14-3-1.78-3.28"/><path class="cls-3" d="M38.69,37.79c-1.64.24-2.17-1.06-2.64-2.65-.58-1.93.14-3,1.78-3.28"/><path class="cls-4" d="M38.69,37.79c-1.64.24-2.17-1.06-2.64-2.65-.58-1.93.14-3,1.78-3.28"/><path class="cls-3" d="M62.55,28.9c0-.15,0-.29,0-.44a35.41,35.41,0,0,1-3.44-7s-6.52,7.18-21.24,8c0,8.26,1.32,11.75,3.58,14.62s6.12,5.13,8.76,5.13S57.06,47,59.12,44s3.43-7.74,3.43-15.12"/><path class="cls-4" d="M62.55,28.9c0-.15,0-.29,0-.44a35.41,35.41,0,0,1-3.44-7s-6.52,7.18-21.24,8c0,8.26,1.32,11.75,3.58,14.62s6.12,5.13,8.76,5.13S57.06,47,59.12,44,62.55,36.28,62.55,28.9Z"/><polyline class="cls-4" points="49.97 34.12 49.38 38.99 51.03 38.99"/><path class="cls-4" d="M52,41.26a1.83,1.83,0,0,1-3.49,0Z"/><path class="cls-5" d="M45.27,34.38a1.54,1.54,0,1,1-1.54-1.53,1.53,1.53,0,0,1,1.54,1.53"/><path class="cls-5" d="M58.3,34.38a1.54,1.54,0,1,1-1.54-1.53,1.53,1.53,0,0,1,1.54,1.53"/><path class="cls-6" d="M71.43,80.14H29c-.58,0-4.73-3.68-4.73-3.68a1,1,0,0,1,1.05-.8H75.1c.59,0,1.06.36,1.06.8C76.16,76.46,72,80.14,71.43,80.14Z"/><rect class="cls-6" x="27.3" y="54.23" width="45.82" height="26.26" rx="2.83"/><rect class="cls-7" x="34.13" y="29.09" width="4.51" height="10.57" rx="1.79"/><rect class="cls-8" x="61.24" y="29.09" width="4.55" height="10.57" rx="1.89"/><path class="cls-9" d="M36.85,39.67s.24,5,2.81,6.76"/><rect class="cls-4" x="39.04" y="46.91" width="4.6" height="2.17" transform="translate(46.05 -15.17) rotate(45)"/><path class="cls-2" d="M36.85,29.09S37.69,15,49.38,15C64,15,63.12,29.09,63.12,29.09"/></g></svg>