<svg xmlns="http://www.w3.org/2000/svg" viewBox="0 0 96 96"><defs><style>.cls-1,.cls-3{fill:#fff;}.cls-2{fill:none;}.cls-2,.cls-3{stroke:#6e6e6e;stroke-linecap:round;stroke-linejoin:round;stroke-width:1.25px;}.cls-4{fill:#6e6e6e;}</style></defs><g id="taustavalko"><rect class="cls-1" width="96" height="96"/></g><g id="Layer_1" data-name="Layer 1"><path class="cls-2" d="M71.05,51.75c0,3.75-10.41,15.38-23,15.38S25,54.46,25,51.75C25,31.27,25,10.89,48,10.89S71.05,31.27,71.05,51.75Z"/><path class="cls-3" d="M23.12,85.11C23.12,71,34.26,67,48,67s24.88,4,24.88,18.09"/><path class="cls-3" d="M42.13,61.14v6.33c0,3.92,3.08,5.66,5.87,5.66s5.87-1.74,5.87-5.66V61.14Z"/><path class="cls-3" d="M64.86,47.76c2.4.35,3.18-1.55,3.87-3.87.85-2.83-.21-4.46-2.61-4.81"/><path class="cls-3" d="M31.14,47.76c-2.4.35-3.18-1.55-3.87-3.87-.85-2.83.21-4.46,2.61-4.81"/><path class="cls-3" d="M30.74,48.46c.86,4.82,2.36,5.8,4.43,8.43C38.55,61.17,44.12,64.4,48,64.4s10-3.22,13-7.51a21.61,21.61,0,0,0,4-9.24"/><path class="cls-2" d="M65.81,39.25a35.45,35.45,0,0,0,.27-4.5c0-.22,0-.43,0-.65-1.38-1.8-3-5.28-5-10.33,0,0-9.55,10.52-31.11,11.7a38.74,38.74,0,0,0,.23,4.11"/><polyline class="cls-2" points="47.65 42.38 46.8 49.52 49.2 49.52"/><path class="cls-2" d="M50.26,52.94a2.37,2.37,0,0,1-4.52,0"/><path class="cls-4" d="M36.85,41.25a2.31,2.31,0,1,0,2.31-2.31,2.31,2.31,0,0,0-2.31,2.31"/><path class="cls-4" d="M59.16,41.25a2.32,2.32,0,1,1-2.32-2.31,2.32,2.32,0,0,1,2.32,2.31"/></g></svg>